<?xml version="1.0" standalone="no"?>
<!DOCTYPE svg PUBLIC "-//W3C//DTD SVG 20010904//EN"
 "http://www.w3.org/TR/2001/REC-SVG-20010904/DTD/svg10.dtd">
<svg version="1.0" xmlns="http://www.w3.org/2000/svg"
 width="192.000000pt" height="192.000000pt" viewBox="0 0 192.000000 192.000000"
 preserveAspectRatio="xMidYMid meet">
<metadata>
Created by potrace 1.14, written by Peter Selinger 2001-2017
</metadata>
<g transform="translate(0.000000,192.000000) scale(0.100000,-0.100000)"
fill="#000000" stroke="none">
<path d="M907 1904 c-1 -1 -51 -4 -112 -7 -249 -14 -304 -65 -328 -303 -5 -52
-11 -60 -43 -68 -60 -16 -152 -92 -178 -149 -41 -90 -43 -214 -6 -332 6 -16
11 -34 11 -40 4 -28 113 -223 165 -295 62 -87 184 -220 201 -220 6 0 1 -19
-11 -42 -19 -38 -21 -59 -20 -175 1 -122 3 -135 27 -175 15 -26 42 -53 69 -68
l43 -25 385 0 c381 0 385 0 428 23 94 49 113 87 114 230 1 160 0 168 -28 201
-24 29 -24 31 -8 55 11 17 17 54 20 108 5 100 11 173 24 253 30 199 36 290 34
464 -1 86 -5 167 -8 181 -8 34 -16 71 -21 97 -8 44 -44 111 -81 153 -87 96
-228 131 -542 134 -74 0 -134 0 -135 0z"/>
</g>
</svg>
